<svg width="24" height="24" viewBox="0 0 24 24" fill="none" xmlns="http://www.w3.org/2000/svg">
<path d="M22.5 13.5H20.4844C20.8281 12.5156 21 11.5156 21 10.5H22.5C22.9062 10.5 23.2578 10.6484 23.5547 10.9453C23.8516 11.2422 24 11.5977 24 12.0117C24 12.4258 23.8516 12.7773 23.5547 13.0664C23.2578 13.3555 22.9062 13.5 22.5 13.5ZM21.75 8.03906L20.7891 8.60156C20.5859 7.61719 20.2109 6.6875 19.6641 5.8125L20.2734 5.46094C20.6328 5.24219 21.0078 5.1875 21.3984 5.29688C21.7891 5.40625 22.0898 5.64062 22.3008 6C22.5117 6.35938 22.5625 6.73828 22.4531 7.13672C22.3438 7.53516 22.1094 7.83594 21.75 8.03906ZM18.3281 4.10156C17.625 3.39844 16.8047 2.82812 15.8672 2.39062L15.9609 2.25C16.1641 1.89062 16.4648 1.65625 16.8633 1.54688C17.2617 1.4375 17.6406 1.48828 18 1.69922C18.3594 1.91016 18.5938 2.21094 18.7031 2.60156C18.8125 2.99219 18.7578 3.36719 18.5391 3.72656L18.3281 4.10156ZM18.5391 20.2734C18.7578 20.6328 18.8125 21.0078 18.7031 21.3984C18.5938 21.7891 18.3594 22.0898 18 22.3008C17.6406 22.5117 17.2617 22.5625 16.8633 22.4531C16.4648 22.3438 16.1641 22.1094 15.9609 21.75L14.4375 19.1484C15.4219 18.8828 16.3281 18.4609 17.1562 17.8828L18.5391 20.2734ZM11.9883 24C11.5742 24 11.2227 23.8555 10.9336 23.5664C10.6445 23.2773 10.5 22.9219 10.5 22.5V19.3125C11 19.4375 11.5 19.5 12 19.5C12.4688 19.5 12.9688 19.4531 13.5 19.3594V22.5C13.5 22.9219 13.3516 23.2773 13.0547 23.5664C12.7578 23.8555 12.4023 24 11.9883 24ZM12 9C11.4844 9 11.0781 8.78906 10.7812 8.36719C9.35938 8.58594 8.20703 9.14453 7.32422 10.043C6.44141 10.9414 6 12.0938 6 13.5H1.5C1.09375 13.5 0.742188 13.3555 0.445312 13.0664C0.148438 12.7773 0 12.4258 0 12.0117C0 11.5977 0.148438 11.2422 0.445312 10.9453C0.742188 10.6484 1.09375 10.5 1.5 10.5H6.44531L2.25 8.03906C1.89062 7.83594 1.65625 7.53516 1.54688 7.13672C1.4375 6.73828 1.48828 6.35938 1.69922 6C1.91016 5.64062 2.21094 5.40625 2.60156 5.29688C2.99219 5.1875 3.36719 5.24219 3.72656 5.46094L7.85156 7.85156L5.46094 3.72656C5.24219 3.36719 5.1875 2.99219 5.29688 2.60156C5.40625 2.21094 5.64062 1.91016 6 1.69922C6.35938 1.48828 6.73828 1.4375 7.13672 1.54688C7.53516 1.65625 7.83594 1.89062 8.03906 2.25L10.5 6.44531V1.5C10.5 1.09375 10.6445 0.742188 10.9336 0.445312C11.2227 0.148438 11.5781 0 12 0C12.4219 0 12.7773 0.148438 13.0664 0.445312C13.3555 0.742188 13.5 1.09375 13.5 1.5V7.5C13.5 7.92188 13.3516 8.27734 13.0547 8.56641C12.7578 8.85547 12.4062 9 12 9ZM2.25 15.9609L6.02344 13.7578C6.05469 14.8203 6.35156 15.7969 6.91406 16.6875L3.72656 18.5391C3.36719 18.7578 2.99219 18.8125 2.60156 18.7031C2.21094 18.5938 1.91016 18.3594 1.69922 18C1.48828 17.6406 1.4375 17.2617 1.54688 16.8633C1.65625 16.4648 1.89062 16.1641 2.25 15.9609ZM7.26562 17.1562C7.90625 18 8.69531 18.6172 9.63281 19.0078L8.03906 21.75C7.83594 22.1094 7.53516 22.3438 7.13672 22.4531C6.73828 22.5625 6.35938 22.5117 6 22.3008C5.64062 22.0898 5.40625 21.7891 5.29688 21.3984C5.1875 21.0078 5.24219 20.6328 5.46094 20.2734L7.26562 17.1562ZM19.875 14.8594L21.75 15.9609C22.1094 16.1641 22.3438 16.4648 22.4531 16.8633C22.5625 17.2617 22.5117 17.6406 22.3008 18C22.0898 18.3594 21.7891 18.5938 21.3984 18.7031C21.0078 18.8125 20.6328 18.7578 20.2734 18.5391L17.9766 17.2031C18.7578 16.5156 19.3906 15.7344 19.875 14.8594Z" fill="black"/>
</svg>
